<svg width="208" height="22" viewBox="0 0 208 22" fill="none" xmlns="http://www.w3.org/2000/svg">
<g clip-path="url(#clip0_57_49953)">
<rect width="208" height="20.4964" transform="translate(0 0.751709)" fill="black"/>
<path d="M206.159 9.16943C205.143 9.16943 204.32 9.98929 204.32 10.9999C204.32 12.0111 205.144 12.8304 206.159 12.8304C207.175 12.8304 207.998 12.0105 207.998 10.9999C207.998 9.98876 207.174 9.16943 206.159 9.16943Z" fill="white"/>
<path d="M127.762 7.58472H130.064C132.22 7.58472 133.739 9.09672 133.739 10.9992C133.739 12.9017 132.22 14.4137 130.064 14.4137H127.762V7.58524V7.58472ZM130.064 13.34C131.583 13.34 132.563 12.3646 132.563 10.9987C132.563 9.63278 131.583 8.65736 130.064 8.65736H128.889V13.34H130.064Z" fill="white"/>
<path d="M136.345 7.58472H141.293V8.65788H137.472V10.4137H140.559V11.4864H137.472V13.34H141.293V14.4132H136.345V7.58472Z" fill="white"/>
<path d="M144.086 7.58472H145.213V13.34H148.691V14.4132H144.086V7.58472Z" fill="white"/>
<path d="M151.142 7.58472H152.268V14.4132H151.142V7.58472Z" fill="white"/>
<path d="M156.041 7.58472L157.511 13.34H158.589L160.01 7.58472H161.137L159.422 14.4132H156.629L154.865 7.58472H156.041Z" fill="white"/>
<path d="M163.734 7.58472H168.683V8.65788H164.861V10.4137H167.948V11.4864H164.861V13.34H168.683V14.4132H163.734V7.58472Z" fill="white"/>
<path d="M171.476 7.58472H174.465C176.13 7.58472 177.111 8.56013 177.111 9.7794C177.111 10.7548 176.474 11.5941 175.347 11.8769L177.062 14.4132H175.739L174.122 11.9741H172.603V14.4132H171.477V7.58472H171.476ZM174.465 10.9014C175.494 10.9014 175.934 10.4726 175.934 9.77993C175.934 9.08726 175.493 8.65841 174.465 8.65841H172.603V10.902L174.465 10.9014Z" fill="white"/>
<path d="M180 7.58472H181.127V14.4132H180V7.58472Z" fill="white"/>
<path d="M184.263 7.58472H189.211V8.65788H185.39V10.4137H188.477V11.4864H185.39V13.34H189.211V14.4132H184.263V7.58472Z" fill="white"/>
<path d="M192.722 12.365C192.771 12.5989 192.869 12.8038 193.007 12.9794C193.242 13.2821 193.663 13.5843 194.437 13.5843C195.525 13.5843 195.956 13.1454 195.956 12.56C195.956 12.0234 195.378 11.7701 194.653 11.5746C193.447 11.2624 191.84 10.9408 191.84 9.43823C191.84 8.37505 192.82 7.38965 194.388 7.38965C195.584 7.38965 196.27 7.8968 196.632 8.3945C196.848 8.68723 196.995 9.01885 197.083 9.38988H195.907C195.858 9.20436 195.78 9.04828 195.662 8.90217C195.456 8.65832 195.084 8.41447 194.388 8.41447C193.457 8.41447 193.016 8.8533 193.016 9.38988C193.016 9.91648 193.594 10.1898 194.319 10.3853C195.524 10.7363 197.131 11.0291 197.131 12.5116C197.131 13.6332 196.151 14.6091 194.437 14.6091C193.143 14.6091 192.409 14.0531 192.016 13.4876C191.781 13.1659 191.624 12.7854 191.546 12.3661H192.722L192.722 12.365Z" fill="white"/>
<path d="M111.006 9.43262H107.046C106.245 9.43262 105.595 10.0797 105.595 10.8779C105.595 11.6761 106.245 12.3231 107.046 12.3231H111.006C111.808 12.3231 112.458 11.6761 112.458 10.8779C112.458 10.0797 111.808 9.43262 111.006 9.43262Z" fill="white"/>
<path d="M93.9718 10.9999V12.8987C93.9718 14.4979 95.0202 15.9101 96.5575 16.3747C97.2522 16.5849 97.9216 16.8797 98.5498 17.2544C99.3549 17.7353 99.9815 18.4364 100.371 19.2541C100.964 20.5013 102.28 21.2475 103.666 21.2475H117.087C117.944 21.2475 118.714 20.6085 118.758 19.7555C118.806 18.8463 118.08 18.0942 117.177 18.0942H102.834C101.039 18.0942 99.2984 17.3007 98.1159 15.8523C97.4571 15.045 97.1382 14.0144 97.1382 12.9738V9.02488C97.1382 7.98482 97.4571 6.95369 98.1159 6.14645C99.2984 4.69804 101.039 3.90447 102.834 3.90447H117.088C117.945 3.90447 118.714 3.2654 118.758 2.41244C118.805 1.50377 118.078 0.751709 117.176 0.751709H103.665C102.279 0.751709 100.963 1.49799 100.37 2.74511C99.9805 3.56286 99.3539 4.26394 98.5488 4.74482C97.9206 5.12006 97.2512 5.41489 96.5564 5.62511C95.0197 6.08969 93.9707 7.50184 93.9707 9.10108V10.9999H93.9718Z" fill="white"/>
<path d="M3.17042 9.16038C3.17042 8.28963 2.46135 7.58374 1.58668 7.58374C0.711997 7.58374 0.00292969 8.28963 0.00292969 9.16038V12.8392C0.00292969 13.71 0.711997 14.4159 1.58668 14.4159C2.46135 14.4159 3.17042 13.71 3.17042 12.8392V9.16038Z" fill="white"/>
<path d="M86.5803 0.751709C85.7055 0.751709 84.9965 1.45752 84.9965 2.32835V17.1115L83.9148 16.6742C83.2365 16.3999 82.6024 16.0273 82.0339 15.5685L81.1728 14.8732C80.3936 14.2441 79.7506 13.4631 79.2834 12.5792L79.2634 12.5413C78.792 11.6489 78.1416 10.8622 77.3523 10.2294L75.5833 8.81203C74.794 8.1798 73.8829 7.71521 72.9062 7.44718L72.8598 7.43457C71.8953 7.17022 70.9946 6.71352 70.2123 6.09337L69.9652 5.89734C69.3887 5.44012 68.884 4.89986 68.468 4.29495L67.4238 2.77612C67.0147 2.1812 66.5375 1.59837 65.9731 1.1464C65.6949 0.904643 65.3349 0.75276 64.9363 0.75276C64.0615 0.75276 63.3525 1.45857 63.3525 2.3294V19.6725C63.3525 20.5433 64.0615 21.2491 64.9363 21.2491C65.811 21.2491 66.52 20.5433 66.52 19.6725V4.83731L67.6825 5.30663C68.353 5.57729 68.9801 5.94412 69.5434 6.39556L69.772 6.57898C70.5697 7.21804 71.2259 8.0153 71.6984 8.91977C72.1708 9.82423 72.827 10.6215 73.6247 11.2606L75.3668 12.6569C76.1645 13.296 77.0868 13.7637 78.0756 14.0302C79.0644 14.2966 79.9866 14.7644 80.7843 15.4034L81.6369 16.0867C82.2012 16.5386 82.6959 17.071 83.105 17.6665L84.1603 19.2016C84.5198 19.7245 84.948 20.3058 85.4284 20.7488C85.4669 20.7893 85.6369 20.9322 85.6369 20.9322C85.9009 21.1288 86.225 21.2491 86.5803 21.2491C87.455 21.2491 88.164 20.5433 88.164 19.6725V2.32835C88.164 1.45752 87.455 0.751709 86.5803 0.751709Z" fill="white"/>
<path d="M57.5443 9.10108C57.5443 7.50184 56.4959 6.08969 54.9586 5.62511C54.2638 5.41489 53.5944 5.12058 52.9662 4.74534C52.1611 4.26447 51.5345 3.56339 51.1454 2.74564C50.5526 1.49799 49.2365 0.751709 47.8502 0.751709H40.3211C38.9348 0.751709 37.6192 1.49799 37.0258 2.74511C36.6367 3.56286 36.0101 4.26394 35.205 4.74482C34.5768 5.12006 33.9074 5.41489 33.2127 5.62459C31.6759 6.08917 30.627 7.50131 30.627 9.10056V12.8987C30.627 14.4979 31.6754 15.9101 33.2127 16.3747C33.9074 16.5849 34.5768 16.8792 35.205 17.2544C36.0101 17.7353 36.6367 18.4364 37.0258 19.2541C37.6192 20.5013 38.9353 21.2475 40.3211 21.2475H47.8502C49.2365 21.2475 50.5521 20.5013 51.1454 19.2541C51.5345 18.4364 52.1611 17.7353 52.9662 17.2544C53.5944 16.8792 54.2638 16.5844 54.9586 16.3747C56.4953 15.9101 57.5443 14.4979 57.5443 12.8987V9.10056V9.10108ZM54.3794 12.9744C54.3794 14.0144 54.0606 15.0455 53.4017 15.8528C52.2192 17.3012 50.4787 18.0948 48.6832 18.0948H39.4885C37.6931 18.0948 35.9526 17.3012 34.77 15.8528C34.1112 15.0455 33.7923 14.0144 33.7923 12.9744V9.0254C33.7923 7.98534 34.1112 6.95422 34.77 6.14698C35.9526 4.69857 37.6931 3.90499 39.4885 3.90499H48.6832C50.4787 3.90499 52.2192 4.69857 53.4017 6.14698C54.0606 6.95422 54.3794 7.98482 54.3794 9.0254V12.9744Z" fill="white"/>
<path d="M24.8151 9.10108C24.8151 7.50184 23.7667 6.08969 22.2294 5.62511C21.5346 5.41489 20.8652 5.12006 20.237 4.74534C19.4319 4.26447 18.8053 3.56339 18.4162 2.74564C17.8229 1.49799 16.5068 0.751709 15.121 0.751709H1.67656C0.8187 0.751709 0.0500556 1.3913 0.00518285 2.24374C-0.0428574 3.15294 0.683554 3.90499 1.58682 3.90499H15.9535C17.7489 3.90499 19.4895 4.69857 20.672 6.14698C21.3308 6.95422 21.6497 7.98482 21.6497 9.0254V12.9744C21.6497 14.0144 21.3308 15.0455 20.672 15.8528C19.4895 17.3012 17.7489 18.0948 15.9535 18.0948H1.67656C0.819228 18.0948 0.0500556 18.7338 0.00571076 19.5868C-0.0423295 20.496 0.684082 21.2481 1.58734 21.2481H15.1215C16.5078 21.2481 17.8234 20.5018 18.4168 19.2547C18.8058 18.4369 19.4325 17.7358 20.2375 17.255C20.8658 16.8797 21.5352 16.5849 22.2299 16.3747C23.7667 15.9101 24.8156 14.4979 24.8156 12.8987V9.10056L24.8151 9.10108Z" fill="white"/>
</g>
<defs>
<clipPath id="clip0_57_49953">
<rect width="208" height="20.4964" fill="white" transform="translate(0 0.751709)"/>
</clipPath>
</defs>
</svg>
